<svg xmlns="http://www.w3.org/2000/svg" version="1.1" xmlns:xlink="http://www.w3.org/1999/xlink" xmlns:svgjs="http://svgjs.dev/svgjs" width="44" height="76"><svg width="44" height="76" viewBox="0 0 44 76" fill="none" xmlns="http://www.w3.org/2000/svg">
<path d="M12.0885 38.516V59.5973H24.711C25.5876 59.5973 26.2158 59.7727 26.5956 60.1233C26.9755 60.4447 27.1654 60.883 27.1654 61.4381C27.1654 61.9641 26.9755 62.4023 26.5956 62.753C26.2158 63.1036 25.5876 63.2789 24.711 63.2789H3.45438C2.57781 63.2789 1.94961 63.1036 1.56977 62.753C1.18992 62.4023 1 61.9641 1 61.4381C1 60.883 1.18992 60.4447 1.56977 60.1233C1.94961 59.7727 2.57781 59.5973 3.45438 59.5973H8.40695V15.6816H3.45438C2.57781 15.6816 1.94961 15.5209 1.56977 15.1995C1.18992 14.8488 1 14.3959 1 13.8408C1 13.2856 1.21914 12.8181 1.65742 12.4383C1.97883 12.1461 2.57781 12 3.45438 12H43.9954V24.6663C43.9954 25.5429 43.8201 26.1711 43.4695 26.5509C43.1188 26.9308 42.6805 27.1207 42.1546 27.1207C41.5995 27.1207 41.1466 26.9308 40.7959 26.5509C40.4453 26.1711 40.27 25.5429 40.27 24.6663V15.6816H12.0885V34.8345H25.2808V30.6708C25.2808 29.7942 25.4561 29.166 25.8067 28.7862C26.1573 28.4063 26.6102 28.2164 27.1654 28.2164C27.6913 28.2164 28.1296 28.4063 28.4802 28.7862C28.8309 29.166 29.0062 29.7942 29.0062 30.6708V42.6797C29.0062 43.5563 28.8309 44.1845 28.4802 44.5643C28.1296 44.9441 27.6913 45.1341 27.1654 45.1341C26.6102 45.1341 26.1573 44.9441 25.8067 44.5643C25.4561 44.1845 25.2808 43.5563 25.2808 42.6797V38.516H12.0885Z" fill="#392F19"></path>
</svg><style>@media (prefers-color-scheme: light) { :root { filter: none; } }
@media (prefers-color-scheme: dark) { :root { filter: invert(100%); } }
</style></svg>