<svg xmlns="http://www.w3.org/2000/svg" version="1.1" xmlns:xlink="http://www.w3.org/1999/xlink" width="27" height="14"><svg width="27" height="14" viewBox="0 0 27 14" fill="none" xmlns="http://www.w3.org/2000/svg">
<path d="M24.0078 0C24.3516 0.09375 24.6849 0.21875 25.0078 0.375C25.3307 0.520833 25.612 0.708333 25.8516 0.9375C26.1016 1.15625 26.2995 1.41667 26.4453 1.71875C26.5911 2.02083 26.6641 2.36979 26.6641 2.76562C26.6641 3.04688 26.6224 3.32812 26.5391 3.60938C26.3516 4.24479 26.0599 4.85938 25.6641 5.45312C25.2786 6.03646 24.8464 6.60938 24.3672 7.17188C23.888 7.72396 23.3932 8.26042 22.8828 8.78125C22.3724 9.29167 21.8984 9.79167 21.4609 10.2812C21.0443 10.75 20.6484 11.2292 20.2734 11.7188C19.8984 12.2083 19.5495 12.724 19.2266 13.2656L19.1328 13.4219C19.1016 13.474 19.0495 13.5 18.9766 13.5C18.9349 13.5 18.8776 13.474 18.8047 13.4219C18.7318 13.3698 18.6953 13.3229 18.6953 13.2812C18.6953 13.125 18.7161 12.9427 18.7578 12.7344C18.8099 12.526 18.8516 12.349 18.8828 12.2031C18.9766 11.7656 19.0859 11.3333 19.2109 10.9062C19.3359 10.4792 19.4401 10.0469 19.5234 9.60938C19.638 9.08854 19.7422 8.57292 19.8359 8.0625C19.9297 7.55208 20.0078 7.03125 20.0703 6.5C19.7786 6.96875 19.4661 7.42188 19.1328 7.85938C18.7995 8.28646 18.4661 8.71875 18.1328 9.15625C17.7266 9.6875 17.3099 10.2135 16.8828 10.7344C16.4661 11.2552 16.0339 11.7656 15.5859 12.2656C15.4297 12.4427 15.2734 12.6146 15.1172 12.7812C14.9609 12.9479 14.7995 13.1146 14.6328 13.2812C14.6016 13.3125 14.5599 13.3281 14.5078 13.3281C14.4557 13.3281 14.3828 13.2917 14.2891 13.2188C14.1953 13.1562 14.1484 13.099 14.1484 13.0469C14.1484 12.7552 14.1693 12.4583 14.2109 12.1562C14.263 11.8542 14.3203 11.5469 14.3828 11.2344C14.4557 10.9219 14.5286 10.6146 14.6016 10.3125C14.6745 10.0104 14.737 9.71354 14.7891 9.42188C14.8932 8.93229 14.9922 8.44792 15.0859 7.96875C15.1901 7.48958 15.2995 7.00521 15.4141 6.51562C15.4661 6.28646 15.513 6.05729 15.5547 5.82812C15.6068 5.58854 15.6693 5.35938 15.7422 5.14062C15.7734 5.05729 15.8359 5.01562 15.9297 5.01562C15.9714 5.01562 16.0286 5.04167 16.1016 5.09375C16.1745 5.13542 16.2109 5.17708 16.2109 5.21875C16.2109 5.29167 16.2005 5.38542 16.1797 5.5C16.1693 5.60417 16.1536 5.71875 16.1328 5.84375C16.1224 5.95833 16.1068 6.07292 16.0859 6.1875C16.0651 6.30208 16.0495 6.40104 16.0391 6.48438C15.9766 7.00521 15.9036 7.52083 15.8203 8.03125L15.5703 9.5625C15.4974 9.95833 15.4297 10.3542 15.3672 10.75C15.3047 11.1354 15.2161 11.5208 15.1016 11.9062C15.5078 11.375 15.9089 10.8438 16.3047 10.3125C16.7109 9.77083 17.112 9.22917 17.5078 8.6875C17.9453 8.09375 18.3672 7.5 18.7734 6.90625C19.1901 6.30208 19.6641 5.73958 20.1953 5.21875C20.237 5.11458 20.3151 5.0625 20.4297 5.0625C20.4818 5.0625 20.5286 5.07812 20.5703 5.10938C20.6224 5.14062 20.6484 5.18229 20.6484 5.23438H20.6641C20.6641 5.22396 20.6693 5.21875 20.6797 5.21875C20.6901 5.21875 20.6953 5.23438 20.6953 5.26562C20.7057 5.28646 20.7109 5.30729 20.7109 5.32812C20.7109 5.34896 20.7057 5.36979 20.6953 5.39062L20.6641 5.45312C20.6745 5.56771 20.6797 5.6875 20.6797 5.8125V6.17188C20.6797 6.91146 20.6276 7.64062 20.5234 8.35938C20.4193 9.07812 20.2943 9.80208 20.1484 10.5312C20.3568 10.2604 20.5703 10 20.7891 9.75C21.0182 9.48958 21.2526 9.23958 21.4922 9C21.7214 8.76042 21.9922 8.48438 22.3047 8.17188C22.6276 7.85938 22.9557 7.52604 23.2891 7.17188C23.6224 6.81771 23.9505 6.45312 24.2734 6.07812C24.5964 5.69271 24.888 5.30729 25.1484 4.92188C25.4089 4.52604 25.6172 4.13542 25.7734 3.75C25.9297 3.36458 26.0078 3 26.0078 2.65625C26.0078 2.22917 25.888 1.85938 25.6484 1.54688C25.4818 1.33854 25.2786 1.16146 25.0391 1.01562C24.8099 0.869792 24.5755 0.739583 24.3359 0.625C24.2526 0.59375 24.1693 0.567708 24.0859 0.546875C24.013 0.515625 23.9453 0.484375 23.8828 0.453125C23.7891 0.411458 23.7422 0.34375 23.7422 0.25C23.7422 0.197917 23.7682 0.145833 23.8203 0.09375C23.8724 0.03125 23.9245 0 23.9766 0H24.0078Z" fill="white"></path>
<path d="M4.71094 4.65625H4.72656C4.95573 4.67708 5.17969 4.72917 5.39844 4.8125C5.6276 4.89583 5.83073 5.01042 6.00781 5.15625C6.1849 5.30208 6.33073 5.47396 6.44531 5.67188C6.57031 5.86979 6.64844 6.09375 6.67969 6.34375C6.70052 6.44792 6.71094 6.55208 6.71094 6.65625V6.96875C6.71094 7.36458 6.66406 7.79688 6.57031 8.26562C6.48698 8.73438 6.35677 9.20312 6.17969 9.67188C6.0026 10.1406 5.78385 10.599 5.52344 11.0469C5.27344 11.4844 4.98177 11.875 4.64844 12.2188C4.32552 12.5625 3.96094 12.8333 3.55469 13.0312C3.15885 13.2396 2.73177 13.3438 2.27344 13.3438C1.92969 13.3438 1.63281 13.25 1.38281 13.0625C1.13281 12.8854 0.919271 12.6562 0.742188 12.375C0.575521 12.0938 0.450521 11.7917 0.367188 11.4688C0.283854 11.1354 0.242188 10.8229 0.242188 10.5312C0.242188 10.1875 0.289062 9.84896 0.382812 9.51562C0.674479 8.55729 1.14323 7.70312 1.78906 6.95312C2.4349 6.20312 3.22135 5.64062 4.14844 5.26562C4.16927 5.25521 4.19531 5.25 4.22656 5.25C4.29948 5.25 4.35156 5.27604 4.38281 5.32812C4.42448 5.38021 4.44531 5.4375 4.44531 5.5C4.44531 5.57292 4.40365 5.63542 4.32031 5.6875L3.66406 6.0625C3.59115 6.10938 3.51823 6.16146 3.44531 6.21875C2.8724 6.63542 2.38281 7.15104 1.97656 7.76562C1.57031 8.38021 1.26302 9.02604 1.05469 9.70312C0.981771 9.92188 0.945312 10.1667 0.945312 10.4375C0.945312 10.6562 0.976562 10.8906 1.03906 11.1406C1.10156 11.3906 1.19531 11.625 1.32031 11.8438C1.44531 12.0521 1.60156 12.2292 1.78906 12.375C1.98698 12.5104 2.21615 12.5781 2.47656 12.5781C2.64323 12.5781 2.79948 12.5469 2.94531 12.4844C3.10156 12.4219 3.2474 12.3438 3.38281 12.25C3.77865 11.9688 4.13281 11.6042 4.44531 11.1562C4.75781 10.7083 5.02344 10.2292 5.24219 9.71875C5.46094 9.19792 5.6276 8.67188 5.74219 8.14062C5.85677 7.59896 5.91406 7.08854 5.91406 6.60938V6.42188C5.89323 6.15104 5.79948 5.92188 5.63281 5.73438C5.47656 5.54688 5.27865 5.39583 5.03906 5.28125C4.96615 5.25 4.89323 5.22396 4.82031 5.20312C4.75781 5.18229 4.69531 5.15625 4.63281 5.125C4.52865 5.08333 4.47656 5.01042 4.47656 4.90625C4.47656 4.83333 4.4974 4.77083 4.53906 4.71875C4.58073 4.66667 4.63802 4.64583 4.71094 4.65625Z" fill="white"></path>
<path d="M11.6641 4.65625H11.6797C11.9089 4.67708 12.1328 4.72917 12.3516 4.8125C12.5807 4.89583 12.7839 5.01042 12.9609 5.15625C13.138 5.30208 13.2839 5.47396 13.3984 5.67188C13.5234 5.86979 13.6016 6.09375 13.6328 6.34375C13.6536 6.44792 13.6641 6.55208 13.6641 6.65625V6.96875C13.6641 7.36458 13.6172 7.79688 13.5234 8.26562C13.4401 8.73438 13.3099 9.20312 13.1328 9.67188C12.9557 10.1406 12.737 10.599 12.4766 11.0469C12.2266 11.4844 11.9349 11.875 11.6016 12.2188C11.2786 12.5625 10.9141 12.8333 10.5078 13.0312C10.112 13.2396 9.6849 13.3438 9.22656 13.3438C8.88281 13.3438 8.58594 13.25 8.33594 13.0625C8.08594 12.8854 7.8724 12.6562 7.69531 12.375C7.52865 12.0938 7.40365 11.7917 7.32031 11.4688C7.23698 11.1354 7.19531 10.8229 7.19531 10.5312C7.19531 10.1875 7.24219 9.84896 7.33594 9.51562C7.6276 8.55729 8.09635 7.70312 8.74219 6.95312C9.38802 6.20312 10.1745 5.64062 11.1016 5.26562C11.1224 5.25521 11.1484 5.25 11.1797 5.25C11.2526 5.25 11.3047 5.27604 11.3359 5.32812C11.3776 5.38021 11.3984 5.4375 11.3984 5.5C11.3984 5.57292 11.3568 5.63542 11.2734 5.6875L10.6172 6.0625C10.5443 6.10938 10.4714 6.16146 10.3984 6.21875C9.82552 6.63542 9.33594 7.15104 8.92969 7.76562C8.52344 8.38021 8.21615 9.02604 8.00781 9.70312C7.9349 9.92188 7.89844 10.1667 7.89844 10.4375C7.89844 10.6562 7.92969 10.8906 7.99219 11.1406C8.05469 11.3906 8.14844 11.625 8.27344 11.8438C8.39844 12.0521 8.55469 12.2292 8.74219 12.375C8.9401 12.5104 9.16927 12.5781 9.42969 12.5781C9.59635 12.5781 9.7526 12.5469 9.89844 12.4844C10.0547 12.4219 10.2005 12.3438 10.3359 12.25C10.7318 11.9688 11.0859 11.6042 11.3984 11.1562C11.7109 10.7083 11.9766 10.2292 12.1953 9.71875C12.4141 9.19792 12.5807 8.67188 12.6953 8.14062C12.8099 7.59896 12.8672 7.08854 12.8672 6.60938V6.42188C12.8464 6.15104 12.7526 5.92188 12.5859 5.73438C12.4297 5.54688 12.2318 5.39583 11.9922 5.28125C11.9193 5.25 11.8464 5.22396 11.7734 5.20312C11.7109 5.18229 11.6484 5.15625 11.5859 5.125C11.4818 5.08333 11.4297 5.01042 11.4297 4.90625C11.4297 4.83333 11.4505 4.77083 11.4922 4.71875C11.5339 4.66667 11.5911 4.64583 11.6641 4.65625Z" fill="white"></path>
</svg><style>@media (prefers-color-scheme: light) { :root { filter: contrast(1) brightness(0.1); } }
@media (prefers-color-scheme: dark) { :root { filter: none; } }
</style></svg>